<svg width="17" height="17" viewBox="0 0 17 17" fill="none" xmlns="http://www.w3.org/2000/svg">
<g clip-path="url(#clip0_3_46)">
<g clip-path="url(#clip1_3_46)">
<path d="M9.84375 1.5C9.84375 0.946875 9.39688 0.5 8.84375 0.5C8.29063 0.5 7.84375 0.946875 7.84375 1.5V9.08438L5.55 6.79063C5.15938 6.4 4.525 6.4 4.13438 6.79063C3.74375 7.18125 3.74375 7.81563 4.13438 8.20625L8.13438 12.2063C8.525 12.5969 9.15938 12.5969 9.55 12.2063L13.55 8.20625C13.9406 7.81563 13.9406 7.18125 13.55 6.79063C13.1594 6.4 12.525 6.4 12.1344 6.79063L9.84375 9.08438V1.5ZM2.84375 11.5C1.74063 11.5 0.84375 12.3969 0.84375 13.5V14.5C0.84375 15.6031 1.74063 16.5 2.84375 16.5H14.8438C15.9469 16.5 16.8438 15.6031 16.8438 14.5V13.5C16.8438 12.3969 15.9469 11.5 14.8438 11.5H11.6719L10.2563 12.9156C9.475 13.6969 8.20937 13.6969 7.42812 12.9156L6.01562 11.5H2.84375ZM14.3438 13.25C14.5427 13.25 14.7334 13.329 14.8741 13.4697C15.0147 13.6103 15.0938 13.8011 15.0938 14C15.0938 14.1989 15.0147 14.3897 14.8741 14.5303C14.7334 14.671 14.5427 14.75 14.3438 14.75C14.1448 14.75 13.9541 14.671 13.8134 14.5303C13.6728 14.3897 13.5938 14.1989 13.5938 14C13.5938 13.8011 13.6728 13.6103 13.8134 13.4697C13.9541 13.329 14.1448 13.25 14.3438 13.25Z" fill="#FF00FF"/>
</g>
</g>
<defs>
<clipPath id="clip0_3_46">
<rect width="16" height="16" fill="white" transform="translate(0.84375 0.5)"/>
</clipPath>
<clipPath id="clip1_3_46">
<path d="M0.84375 0.5H16.8438V16.5H0.84375V0.5Z" fill="white"/>
</clipPath>
</defs>
</svg>
