<svg width="27" height="36" viewBox="0 0 27 36" fill="none" xmlns="http://www.w3.org/2000/svg">
<g clip-path="url(#clip0_3_161)">
<path d="M0.984375 6.7354C0.984375 3.01554 3.99992 0 7.71982 0H19.2769C22.9968 0 26.0124 3.01554 26.0124 6.7354C26.0124 9.09084 24.8033 11.1639 22.9719 12.3678C24.8033 13.5716 26.0124 15.6447 26.0124 18.0001C26.0124 21.72 22.9968 24.7356 19.2769 24.7356H19.1307C17.3868 24.7356 15.7977 24.0728 14.6015 22.9854V29.1914C14.6015 32.9609 11.5071 36 7.7561 36C4.04551 36 0.984375 32.9936 0.984375 29.2646C0.984375 26.9092 2.19336 24.8363 4.02463 23.6324C2.19336 22.4285 0.984375 20.3555 0.984375 18.0001C0.984375 15.6447 2.19347 13.5716 4.02486 12.3678C2.19347 11.1639 0.984375 9.09084 0.984375 6.7354ZM12.3952 13.471H7.71982C5.2184 13.471 3.19063 15.4988 3.19063 18.0001C3.19063 20.4919 5.20276 22.5136 7.69085 22.5292C7.70048 22.5292 7.71012 22.5292 7.71982 22.5292H12.3952V13.471ZM14.6015 18.0001C14.6015 20.5015 16.6293 22.5293 19.1307 22.5293H19.2769C21.7784 22.5293 23.8061 20.5015 23.8061 18.0001C23.8061 15.4988 21.7784 13.471 19.2769 13.471H19.1307C16.6293 13.471 14.6015 15.4988 14.6015 18.0001ZM7.71982 24.7356C7.71012 24.7356 7.70048 24.7355 7.69085 24.7355C5.20276 24.7511 3.19063 26.7728 3.19063 29.2646C3.19063 31.7568 5.24549 33.7937 7.7561 33.7937C10.3072 33.7937 12.3952 31.724 12.3952 29.1914V24.7356H7.71982ZM7.71982 2.20625C5.2184 2.20625 3.19063 4.23403 3.19063 6.7354C3.19063 9.23681 5.2184 11.2646 7.71982 11.2646H12.3952V2.20625H7.71982ZM14.6015 11.2646H19.2769C21.7784 11.2646 23.8061 9.23681 23.8061 6.7354C23.8061 4.23403 21.7784 2.20625 19.2769 2.20625H14.6015V11.2646Z" fill="#FF00FF"/>
</g>
<defs>
<clipPath id="clip0_3_161">
<path d="M0 0H27V36H0V0Z" fill="white"/>
</clipPath>
</defs>
</svg>
