<svg width="31" height="36" viewBox="0 0 31 36" fill="none" xmlns="http://www.w3.org/2000/svg">
<path d="M30.211 16.4189L16.8623 0.918051C16.0941 0.0253633 14.8473 0.0253633 14.0779 0.918051L11.3066 4.13724L14.8226 8.22043C15.64 7.90008 16.5768 8.11496 17.228 8.87124C17.5384 9.23198 17.7551 9.68687 17.8533 10.1839C17.9515 10.6809 17.9273 11.2 17.7834 11.6818L21.1721 15.6176C21.9919 15.2894 22.9381 15.5014 23.5925 16.2631C24.508 17.3253 24.508 19.0474 23.5925 20.1103C23.3749 20.363 23.1166 20.5635 22.8323 20.7003C22.548 20.8371 22.2433 20.9076 21.9356 20.9076C21.6278 20.9076 21.3231 20.8371 21.0388 20.7003C20.7545 20.5635 20.4962 20.363 20.2786 20.1103C19.9518 19.7305 19.729 19.2469 19.6383 18.7203C19.5475 18.1938 19.593 17.6479 19.7688 17.1512L16.6088 13.4812L16.6083 23.1396C16.8376 23.2707 17.0469 23.4444 17.228 23.6537C18.1433 24.716 18.1433 26.4376 17.228 27.5021C16.3128 28.5644 14.8294 28.5644 13.9152 27.5021C13.0002 26.4378 12.9251 24.7163 13.8398 23.6537C14.066 23.3913 14.2891 23.1931 14.5313 23.0603V13.3125C14.2891 13.1797 14.0663 12.9828 13.8396 12.7187C13.1467 11.9144 13.0171 10.7331 13.3727 9.74424L9.9256 5.71871L0.782056 16.3471C0.0131112 17.2407 0.0179549 18.6886 0.7869 19.5815L14.1377 35.0823C14.9062 35.975 16.1539 35.975 16.9236 35.0823L30.21 19.6535C30.979 18.7603 30.9797 17.3116 30.211 16.4189Z" fill="#FF00FF"/>
</svg>
