<svg width="28" height="36" viewBox="0 0 28 36" fill="none" xmlns="http://www.w3.org/2000/svg">
<g clip-path="url(#clip0_3_172)">
<path d="M27.25 36H0.25V0H27.25V36Z" stroke="#E5E7EB"/>
<path d="M1.375 4.5C1.375 2.01797 3.39297 0 5.875 0H21.625C24.107 0 26.125 2.01797 26.125 4.5V31.5C26.125 33.982 24.107 36 21.625 36H5.875C3.39297 36 1.375 33.982 1.375 31.5V4.5ZM10.375 31.5C10.375 32.1188 10.8813 32.625 11.5 32.625H16C16.6187 32.625 17.125 32.1188 17.125 31.5C17.125 30.8813 16.6187 30.375 16 30.375H11.5C10.8813 30.375 10.375 30.8813 10.375 31.5ZM21.625 4.5H5.875V27H21.625V4.5Z" fill="#8A2BE2"/>
</g>
<defs>
<clipPath id="clip0_3_172">
<rect width="27" height="36" fill="white" transform="translate(0.25)"/>
</clipPath>
</defs>
</svg>
