<svg width="32" height="36" viewBox="0 0 32 36" fill="none" xmlns="http://www.w3.org/2000/svg">
<path d="M28.916 9.4219L28.9898 9.36565C28.8422 9.05627 28.6207 8.77502 28.3992 8.6344L16.5129 0.815649C16.316 0.675024 16.0453 0.618774 15.75 0.618774C15.4547 0.618774 15.184 0.703149 14.9871 0.815649L3.17461 8.66252C2.75625 8.94377 2.46094 9.6469 2.46094 10.1813V25.8469C2.46094 26.1563 2.51016 26.4938 2.68242 26.8032L2.6332 26.8313C2.75625 27.0563 2.92852 27.2532 3.10078 27.3657L14.9625 35.2125C15.1594 35.3531 15.4301 35.4094 15.7254 35.4094C16.0207 35.4094 16.2914 35.325 16.4883 35.2125L28.3008 27.3657C28.7191 27.0844 29.0145 26.3813 29.0145 25.8469V10.1531C29.0391 9.92815 29.0145 9.67502 28.916 9.4219ZM20.1797 18.5625V17.4375H21.4102V16.0313H22.6406V17.4375H23.8711V18.5625H22.6406V19.9688H21.4102V18.5625H20.1797ZM20.9918 14.625C19.9582 12.5156 17.9895 11.1094 15.75 11.1094C12.4277 11.1094 9.7207 14.2031 9.7207 18C9.7207 21.7969 12.4277 24.8906 15.75 24.8906C17.9895 24.8906 19.9582 23.4844 20.9918 21.4032L24.1664 23.5406C22.493 26.8594 19.343 29.1094 15.75 29.1094C10.3852 29.1094 6.0293 24.1313 6.0293 18C6.0293 11.8688 10.3852 6.89065 15.75 6.89065C19.3676 6.89065 22.5176 9.16877 24.191 12.5156L20.9918 14.625ZM28.3008 18.5625H27.0703V19.9688H26.0859V18.5625H24.6094V17.4375H26.0859V16.0313H27.0703V17.4375H28.3008V18.5625Z" fill="#00FFFF"/>
</svg>
