<svg width="31" height="36" viewBox="0 0 31 36" fill="none" xmlns="http://www.w3.org/2000/svg">
<path d="M2.12158 0.28125L4.55678 32.0296L15.4838 35.5677L26.4413 32.0167L28.8785 0.28125H2.12158ZM23.8194 7.55494L23.0088 18.1313L23.0112 18.1884L23.0078 18.3198V18.3187L22.4319 25.7138L22.3685 26.3708L15.5 28.577V28.5773L15.4947 28.5826L8.63812 26.3641L8.17385 20.25H11.5361L11.7747 23.3589L15.501 24.5317L15.5 24.534V24.5334L19.2401 23.344L19.6354 18.2812H11.8168L11.7497 17.4254L11.5969 15.4204L11.5168 14.3438H19.9325L20.2387 10.4062H7.42064L7.35356 9.55097L7.20098 7.54537L7.12057 6.46875H23.8996L23.8194 7.55494Z" fill="#00FFFF"/>
</svg>
