<svg width="15" height="17" viewBox="0 0 15 17" fill="none" xmlns="http://www.w3.org/2000/svg">
<g clip-path="url(#clip0_3_42)">
<path d="M14.55 9.20627C14.9406 8.81565 14.9406 8.18127 14.55 7.79065L9.55 2.79065C9.15938 2.40002 8.525 2.40002 8.13438 2.79065C7.74375 3.18127 7.74375 3.81565 8.13438 4.20627L11.4312 7.50002H1.84375C1.29062 7.50002 0.84375 7.9469 0.84375 8.50002C0.84375 9.05315 1.29062 9.50002 1.84375 9.50002H11.4281L8.1375 12.7938C7.74687 13.1844 7.74687 13.8188 8.1375 14.2094C8.52812 14.6 9.1625 14.6 9.55313 14.2094L14.5531 9.2094L14.55 9.20627Z" fill="#E5E7EB"/>
</g>
<defs>
<clipPath id="clip0_3_42">
<path d="M0.84375 0.5H14.8438V16.5H0.84375V0.5Z" fill="white"/>
</clipPath>
</defs>
</svg>
