<svg width="32" height="36" viewBox="0 0 32 36" fill="none" xmlns="http://www.w3.org/2000/svg">
<g clip-path="url(#clip0_3_130)">
<path d="M15.75 35.7188C15.2789 35.7188 14.8008 35.5922 14.3859 35.3531L10.0477 32.7867C9.40079 32.4211 9.71719 32.2946 9.92813 32.2242C10.793 31.9219 10.9688 31.8586 11.8899 31.3313C11.9883 31.275 12.1149 31.2961 12.2133 31.3594L15.5461 33.3352C15.6656 33.4055 15.8344 33.4055 15.9469 33.3352L28.9336 25.8399C29.0531 25.7696 29.1305 25.6289 29.1305 25.4883V10.4977C29.1305 10.35 29.0531 10.2164 28.9266 10.1391L15.9469 2.65081C15.8274 2.58049 15.6656 2.58049 15.5461 2.65081L2.57344 10.1461C2.44688 10.2164 2.36954 10.3571 2.36954 10.5047V25.4883C2.36954 25.6289 2.44688 25.7696 2.57344 25.8328L6.13126 27.886C8.06485 28.8492 9.2461 27.7172 9.2461 26.5711V11.7774C9.2461 11.5664 9.41485 11.4047 9.62579 11.4047H11.2711C11.475 11.4047 11.6508 11.5664 11.6508 11.7774V26.5781C11.6508 29.1516 10.2445 30.6282 7.80469 30.6282C7.05235 30.6282 6.46173 30.6282 4.81641 29.8125L1.41329 27.8508C0.569537 27.3657 0.0492249 26.4586 0.0492249 25.4813V10.4977C0.0492249 9.52737 0.569537 8.61331 1.41329 8.12815L14.3859 0.632837C15.2086 0.168774 16.2984 0.168774 17.1141 0.632837L30.1008 8.13518C30.9445 8.62034 31.4648 9.52737 31.4648 10.5047V25.4883C31.4648 26.4586 30.9445 27.3657 30.1008 27.8578L17.1141 35.3531C16.6992 35.5922 16.2281 35.7188 15.75 35.7188ZM26.2336 20.9461C26.2336 18.1406 24.3352 17.3953 20.3484 16.868C16.3125 16.3336 15.9047 16.0594 15.9047 15.1172C15.9047 14.3367 16.2492 13.2961 19.2375 13.2961C21.9023 13.2961 22.8867 13.8727 23.2945 15.6727C23.3297 15.8414 23.4844 15.968 23.6602 15.968H25.3477C25.4531 15.968 25.5516 15.9258 25.6219 15.8485C25.6922 15.7711 25.7273 15.6656 25.7203 15.5602C25.4602 12.4594 23.4 11.018 19.2375 11.018C15.532 11.018 13.3242 12.5789 13.3242 15.2016C13.3242 18.0422 15.525 18.8297 19.0758 19.1813C23.3297 19.5961 23.6602 20.2219 23.6602 21.0586C23.6602 22.5071 22.493 23.1258 19.7578 23.1258C16.3195 23.1258 15.5672 22.261 15.3141 20.5524C15.2859 20.3696 15.1313 20.236 14.9414 20.236H13.2609C13.05 20.236 12.8883 20.4047 12.8883 20.6086C12.8883 22.7953 14.0766 25.4039 19.7648 25.4039C23.8711 25.3969 26.2336 23.7727 26.2336 20.9461Z" fill="#FF00FF"/>
</g>
<defs>
<clipPath id="clip0_3_130">
<path d="M0 0H31.5V36H0V0Z" fill="white"/>
</clipPath>
</defs>
</svg>
