<svg width="17" height="21" viewBox="0 0 17 21" fill="none" xmlns="http://www.w3.org/2000/svg">
<path d="M16.9688 21H0.96875V0H16.9688V21Z" stroke="#E5E7EB"/>
<g clip-path="url(#clip0_122_327)">
<path d="M16.5343 2.17512C16.85 2.39387 17.0156 2.77199 16.9562 3.15012L14.9562 16.1501C14.9093 16.4532 14.725 16.7189 14.4562 16.8689C14.1875 17.0189 13.8656 17.0376 13.5812 16.9189L9.84371 15.3657L7.70308 17.6814C7.42496 17.9845 6.98746 18.0845 6.60308 17.9345C6.21871 17.7845 5.96871 17.4126 5.96871 17.0001V14.3876C5.96871 14.2626 6.01558 14.1439 6.09996 14.0532L11.3375 8.33762C11.5187 8.14074 11.5125 7.83762 11.325 7.65012C11.1375 7.46262 10.8343 7.45012 10.6375 7.62824L4.28121 13.2751L1.52183 11.8939C1.19058 11.7282 0.978084 11.397 0.968709 11.0282C0.959334 10.6595 1.15308 10.3157 1.47183 10.1314L15.4718 2.13137C15.8062 1.94074 16.2187 1.95949 16.5343 2.17512Z" fill="white"/>
</g>
<defs>
<clipPath id="clip0_122_327">
<path d="M0.96875 2H16.9688V18H0.96875V2Z" fill="white"/>
</clipPath>
</defs>
</svg>
